<svg id="checkbox" xmlns="http://www.w3.org/2000/svg" width="52" height="52" viewBox="0 0 52 52">
  <g id="Grupo_20655" data-name="Grupo 20655">
    <g id="Grupo_20654" data-name="Grupo 20654">
      <path id="Trazado_23287" data-name="Trazado 23287" d="M46.583,52H5.417A5.421,5.421,0,0,1,0,46.583V5.417A5.421,5.421,0,0,1,5.417,0H46.583A5.421,5.421,0,0,1,52,5.417V46.583A5.421,5.421,0,0,1,46.583,52ZM5.417,2.167a3.254,3.254,0,0,0-3.25,3.25V46.583a3.254,3.254,0,0,0,3.25,3.25H46.583a3.254,3.254,0,0,0,3.25-3.25V5.417a3.254,3.254,0,0,0-3.25-3.25Z" fill="#aaa"/>
    </g>
  </g>
  <g id="Grupo_20657" data-name="Grupo 20657" transform="translate(6.5 8.667)">
    <g id="Grupo_20656" data-name="Grupo 20656">
      <path id="Trazado_23288" data-name="Trazado 23288" d="M14.917,19.167H6.25A3.254,3.254,0,0,1,3,15.917V7.25A3.254,3.254,0,0,1,6.25,4h8.667a3.254,3.254,0,0,1,3.25,3.25v8.667A3.254,3.254,0,0,1,14.917,19.167Zm-8.667-13A1.087,1.087,0,0,0,5.167,7.25v8.667A1.087,1.087,0,0,0,6.25,17h8.667A1.087,1.087,0,0,0,16,15.917V7.25a1.087,1.087,0,0,0-1.083-1.083Z" transform="translate(-3 -4)" fill="#aaa"/>
    </g>
  </g>
  <g id="Grupo_20659" data-name="Grupo 20659" transform="translate(28.167 10.833)">
    <g id="Grupo_20658" data-name="Grupo 20658">
      <path id="Trazado_23289" data-name="Trazado 23289" d="M29.25,7.167H14.083a1.083,1.083,0,1,1,0-2.167H29.25a1.083,1.083,0,0,1,0,2.167Z" transform="translate(-13 -5)" fill="#aaa"/>
    </g>
  </g>
  <g id="Grupo_20661" data-name="Grupo 20661" transform="translate(28.167 19.5)">
    <g id="Grupo_20660" data-name="Grupo 20660">
      <path id="Trazado_23290" data-name="Trazado 23290" d="M29.25,11.167H14.083a1.083,1.083,0,1,1,0-2.167H29.25a1.083,1.083,0,0,1,0,2.167Z" transform="translate(-13 -9)" fill="#aaa"/>
    </g>
  </g>
  <g id="Grupo_20663" data-name="Grupo 20663" transform="translate(8.666 6.502)">
    <g id="Grupo_20662" data-name="Grupo 20662">
      <path id="Trazado_23291" data-name="Trazado 23291" d="M9.417,16a1.088,1.088,0,0,1-.767-.316L4.317,11.349A1.083,1.083,0,1,1,5.848,9.818l3.568,3.566L19.483,3.318a1.083,1.083,0,0,1,1.532,1.532L10.182,15.683A1.079,1.079,0,0,1,9.417,16Z" transform="translate(-4 -3.001)" fill="#aaa"/>
    </g>
  </g>
  <g id="Grupo_20665" data-name="Grupo 20665" transform="translate(6.5 30.333)">
    <g id="Grupo_20664" data-name="Grupo 20664">
      <path id="Trazado_23292" data-name="Trazado 23292" d="M14.917,29.167H6.25A3.254,3.254,0,0,1,3,25.917V17.25A3.254,3.254,0,0,1,6.25,14h8.667a3.254,3.254,0,0,1,3.25,3.25v8.667A3.254,3.254,0,0,1,14.917,29.167Zm-8.667-13A1.087,1.087,0,0,0,5.167,17.25v8.667A1.087,1.087,0,0,0,6.25,27h8.667A1.087,1.087,0,0,0,16,25.917V17.25a1.087,1.087,0,0,0-1.083-1.083Z" transform="translate(-3 -14)" fill="#aaa"/>
    </g>
  </g>
  <g id="Grupo_20667" data-name="Grupo 20667" transform="translate(28.167 32.5)">
    <g id="Grupo_20666" data-name="Grupo 20666">
      <path id="Trazado_23293" data-name="Trazado 23293" d="M29.25,17.167H14.083a1.083,1.083,0,1,1,0-2.167H29.25a1.083,1.083,0,0,1,0,2.167Z" transform="translate(-13 -15)" fill="#aaa"/>
    </g>
  </g>
  <g id="Grupo_20669" data-name="Grupo 20669" transform="translate(28.167 41.167)">
    <g id="Grupo_20668" data-name="Grupo 20668">
      <path id="Trazado_23294" data-name="Trazado 23294" d="M29.25,21.167H14.083a1.083,1.083,0,1,1,0-2.167H29.25a1.083,1.083,0,0,1,0,2.167Z" transform="translate(-13 -19)" fill="#aaa"/>
    </g>
  </g>
</svg>
