<svg xmlns="http://www.w3.org/2000/svg" width="52.263" height="52" viewBox="0 0 52.263 52">
  <g id="edit_1_" data-name="edit (1)" transform="translate(0 -0.261)">
    <path id="Trazado_23285" data-name="Trazado 23285" d="M48.236,66.74a1.3,1.3,0,0,0-1.3,1.3V79.6a3.909,3.909,0,0,1-3.9,3.9H6.508a3.909,3.909,0,0,1-3.9-3.9V45.68a3.909,3.909,0,0,1,3.9-3.9H18.065a1.3,1.3,0,1,0,0-2.6H6.508A6.515,6.515,0,0,0,0,45.68V79.6a6.515,6.515,0,0,0,6.508,6.508H43.03A6.515,6.515,0,0,0,49.538,79.6V68.042a1.3,1.3,0,0,0-1.3-1.3Zm0,0" transform="translate(0 -33.847)" fill="#aaa"/>
    <path id="Trazado_23286" data-name="Trazado 23286" d="M143.13,1.976a5.857,5.857,0,0,0-8.284,0L111.625,25.2a1.3,1.3,0,0,0-.334.573L108.238,36.8a1.3,1.3,0,0,0,1.6,1.6l11.025-3.054a1.3,1.3,0,0,0,.573-.334l23.221-23.222a5.864,5.864,0,0,0,0-8.284ZM114.461,26.044,133.467,7.038l6.129,6.129L120.59,32.173ZM113.237,28.5l4.9,4.9-6.773,1.877Zm29.58-18.554-1.38,1.38-6.13-6.13,1.381-1.38a3.254,3.254,0,0,1,4.6,0l1.528,1.527A3.259,3.259,0,0,1,142.817,9.947Zm0,0" transform="translate(-94.108)" fill="#aaa"/>
  </g>
</svg>
