<svg id="Componente_926_1" data-name="Componente 926 – 1" xmlns="http://www.w3.org/2000/svg" width="85" height="85" viewBox="0 0 85 85">
  <ellipse id="Elipse_1190" data-name="Elipse 1190" cx="41.5" cy="42" rx="41.5" ry="42" transform="translate(0 0)" fill="#fff"/>
  <g id="Componente_927_1" data-name="Componente 927 – 1" transform="translate(5.988 6.061)">
    <g id="Grupo_20716" data-name="Grupo 20716" transform="translate(0 0.386)">
      <g id="Grupo_20465" data-name="Grupo 20465">
        <g id="XMLID_997_">
          <g id="XMLID_998_">
            <g id="XMLID_999_">
              <g id="XMLID_1000_">
                <g id="XMLID_1031_">
                  <g id="XMLID_1062_">
                    <g id="XMLID_1125_">
                      <g id="XMLID_1126_">
                        <g id="XMLID_1127_">
                          <g id="XMLID_1128_">
                            <g id="XMLID_1129_">
                              <g id="XMLID_1130_">
                                <g id="XMLID_1131_">
                                  <g id="XMLID_1132_">
                                    <g id="XMLID_1133_">
                                      <ellipse id="Elipse_564" data-name="Elipse 564" cx="35.876" cy="36.282" rx="35.876" ry="36.282" fill="#fed940"/>
                                    </g>
                                  </g>
                                </g>
                              </g>
                            </g>
                          </g>
                        </g>
                      </g>
                    </g>
                  </g>
                </g>
              </g>
            </g>
          </g>
        </g>
      </g>
    </g>
    <g id="Grupo_20717" data-name="Grupo 20717" transform="translate(32.188)">
      <g id="Grupo_20468" data-name="Grupo 20468">
        <g id="XMLID_951_">
          <g id="XMLID_952_">
            <g id="XMLID_953_">
              <g id="XMLID_954_">
                <g id="XMLID_955_">
                  <g id="XMLID_956_">
                    <g id="XMLID_957_">
                      <g id="XMLID_958_">
                        <g id="XMLID_959_">
                          <g id="XMLID_960_">
                            <g id="XMLID_961_">
                              <g id="XMLID_962_">
                                <g id="XMLID_963_">
                                  <g id="XMLID_973_">
                                    <g id="Grupo_20467" data-name="Grupo 20467">
                                      <path id="Trazado_23112" data-name="Trazado 23112" d="M295.671,112.606c0,20.174-17.762,36.53-39.672,36.53V76.076C277.909,76.076,295.671,92.432,295.671,112.606Z" transform="translate(-255.999 -76.076)" fill="#ffc024"/>
                                    </g>
                                  </g>
                                </g>
                              </g>
                            </g>
                          </g>
                        </g>
                      </g>
                    </g>
                  </g>
                </g>
              </g>
            </g>
          </g>
        </g>
      </g>
    </g>
    <path id="Trazado_23324" data-name="Trazado 23324" d="M189.426,250a34.935,34.935,0,0,1-.928,8.065,30.887,30.887,0,0,1-2.812,7.506,26.141,26.141,0,0,1-2.09,3.3c-3.6,4.83-8.58,7.816-14.077,7.816-6.66,0-12.554-4.382-16.167-11.114a30.885,30.885,0,0,1-2.813-7.506A34.94,34.94,0,0,1,149.61,250Z" transform="translate(-133.779 -216.419)" fill="#7f6866"/>
    <path id="Trazado_23325" data-name="Trazado 23325" d="M279.459,250a29.913,29.913,0,0,1-1.094,8.065,28.15,28.15,0,0,1-3.314,7.506,26.008,26.008,0,0,1-2.463,3.3A22.061,22.061,0,0,1,256,276.685V250Z" transform="translate(-221.75 -216.419)" fill="#634c4c"/>
    <g id="Grupo_20718" data-name="Grupo 20718" transform="translate(9.776 16.098)">
      <path id="Trazado_23115" data-name="Trazado 23115" d="M159.748,167.485h-6.615a4.141,4.141,0,1,0-8.281,0h-6.615a10.756,10.756,0,1,1,21.51,0Z" transform="translate(-138.238 -156.608)" fill="#7f6866"/>
    </g>
    <g id="Grupo_20719" data-name="Grupo 20719" transform="translate(40.196 16.098)">
      <path id="Trazado_23116" data-name="Trazado 23116" d="M297.718,167.485H291.1a4.141,4.141,0,1,0-8.28,0h-6.615a10.756,10.756,0,1,1,21.511,0Z" transform="translate(-276.207 -156.608)" fill="#634c4c"/>
    </g>
  </g>
</svg>
