<svg id="Componente_926_4" data-name="Componente 926 – 4" xmlns="http://www.w3.org/2000/svg" width="83" height="84" viewBox="0 0 83 84">
  <circle id="Elipse_1190" data-name="Elipse 1190" cx="41.5" cy="41.5" r="41.5" transform="translate(0 0)" fill="#fff"/>
  <g id="Componente_928_1" data-name="Componente 928 – 1" transform="translate(6 6)">
    <g id="Grupo_20736" data-name="Grupo 20736">
      <g id="Grupo_3258" data-name="Grupo 3258">
        <g id="XMLID_2692_">
          <g id="XMLID_2693_">
            <g id="XMLID_2694_">
              <g id="XMLID_2695_">
                <g id="XMLID_2696_">
                  <g id="XMLID_2697_">
                    <g id="XMLID_2698_">
                      <g id="XMLID_2699_">
                        <g id="XMLID_2723_">
                          <g id="XMLID_2739_">
                            <g id="XMLID_2740_">
                              <g id="XMLID_2741_">
                                <g id="XMLID_2742_">
                                  <g id="XMLID_2743_">
                                    <g id="XMLID_2744_">
                                      <circle id="Elipse_428" data-name="Elipse 428" cx="36" cy="36" r="36" transform="translate(0 -0.001)" fill="#ff816c"/>
                                    </g>
                                  </g>
                                </g>
                              </g>
                            </g>
                          </g>
                        </g>
                      </g>
                    </g>
                  </g>
                </g>
              </g>
            </g>
          </g>
        </g>
      </g>
    </g>
    <g id="Grupo_20737" data-name="Grupo 20737" transform="translate(35.931)">
      <g id="XMLID_2483_">
        <g id="XMLID_2484_">
          <g id="XMLID_2485_">
            <g id="XMLID_2486_">
              <g id="XMLID_2487_">
                <g id="XMLID_2488_">
                  <g id="XMLID_2489_">
                    <g id="XMLID_2490_">
                      <g id="XMLID_2491_">
                        <g id="XMLID_2506_">
                          <g id="XMLID_2507_">
                            <g id="XMLID_2508_">
                              <g id="XMLID_2509_">
                                <g id="XMLID_2510_">
                                  <path id="Trazado_9932" data-name="Trazado 9932" d="M291.93,112.007A35.931,35.931,0,0,1,256,147.937V76.076A35.931,35.931,0,0,1,291.93,112.007Z" transform="translate(-255.999 -76.076)" fill="#ff6643"/>
                                </g>
                              </g>
                            </g>
                          </g>
                        </g>
                      </g>
                    </g>
                  </g>
                </g>
              </g>
            </g>
          </g>
        </g>
      </g>
    </g>
    <g id="Grupo_20738" data-name="Grupo 20738" transform="translate(21.053 40.322)">
      <path id="Trazado_9933" data-name="Trazado 9933" d="M211.254,292.878h-6.989a7.889,7.889,0,0,0-15.777,0H181.5a14.878,14.878,0,0,1,29.756,0Z" transform="translate(-181.498 -278)" fill="#7f6866"/>
    </g>
    <g id="Grupo_20739" data-name="Grupo 20739" transform="translate(14.19 18.983)">
      <path id="Trazado_9934" data-name="Trazado 9934" d="M162.793,178.9a7.965,7.965,0,1,1-13.237-7.774Z" transform="translate(-147.131 -171.128)" fill="#7f6866"/>
      <path id="Trazado_9935" data-name="Trazado 9935" d="M302.1,176.85A7.966,7.966,0,0,1,286.44,178.9l13.237-7.774A7.942,7.942,0,0,1,302.1,176.85Z" transform="translate(-258.62 -171.128)" fill="#634c4c"/>
    </g>
    <g id="Grupo_20740" data-name="Grupo 20740" transform="translate(35.931 40.322)">
      <path id="Trazado_9936" data-name="Trazado 9936" d="M270.878,292.878h-6.989A7.9,7.9,0,0,0,256,284.99V278A14.894,14.894,0,0,1,270.878,292.878Z" transform="translate(-256 -278)" fill="#634c4c"/>
    </g>
  </g>
</svg>
