<svg xmlns="http://www.w3.org/2000/svg" width="52" height="30.906" viewBox="0 0 52 30.906">
  <g id="eye" transform="translate(-11.025 -110.4)">
    <g id="Grupo_20652" data-name="Grupo 20652" transform="translate(11.025 110.4)">
      <path id="Trazado_23279" data-name="Trazado 23279" d="M62.858,125.3a29.843,29.843,0,0,0-51.666,0,1,1,0,0,0,0,1.1,29.843,29.843,0,0,0,51.666,0A1,1,0,0,0,62.858,125.3ZM37.025,139.1a27.608,27.608,0,0,1-23.519-13.245,27.5,27.5,0,0,1,47.038,0A27.608,27.608,0,0,1,37.025,139.1Z" transform="translate(-11.025 -110.4)" fill="#aaa"/>
      <path id="Trazado_23280" data-name="Trazado 23280" d="M172.334,162.4a9.934,9.934,0,1,0,9.934,9.934A9.893,9.893,0,0,0,172.334,162.4Zm0,17.661a7.726,7.726,0,1,1,7.726-7.726A7.68,7.68,0,0,1,172.334,180.061Z" transform="translate(-146.334 -156.881)" fill="#aaa"/>
      <path id="Trazado_23281" data-name="Trazado 23281" d="M218.815,214.4v2.208a2.208,2.208,0,1,1-2.208,2.208H214.4a4.415,4.415,0,1,0,4.415-4.415Z" transform="translate(-192.815 -203.362)" fill="#aaa"/>
    </g>
  </g>
</svg>
