<svg id="NPS_0" data-name="NPS 0" xmlns="http://www.w3.org/2000/svg" width="36" height="36" viewBox="0 0 36 36">
  <circle id="Elipse_1203" data-name="Elipse 1203" cx="18" cy="18" r="18" fill="#1c1c1c"/>
  <g id="NPS_6" data-name="NPS 6">
    <path id="Trazado_23334" data-name="Trazado 23334" d="M18,0A18,18,0,1,0,36,18,18.021,18.021,0,0,0,18,0ZM9,13.5a2.25,2.25,0,1,1,2.25,2.25A2.254,2.254,0,0,1,9,13.5ZM25.954,27.387a1.13,1.13,0,0,1-1.593,0,9.213,9.213,0,0,0-12.728,0A1.125,1.125,0,0,1,10.042,25.8a11.25,11.25,0,0,1,15.912,0A1.126,1.126,0,0,1,25.954,27.387ZM24.75,15.75A2.25,2.25,0,1,1,27,13.5,2.254,2.254,0,0,1,24.75,15.75Z" fill="#ffd800"/>
  </g>
</svg>
