<svg id="NPS_0" data-name="NPS 0" xmlns="http://www.w3.org/2000/svg" width="36" height="36" viewBox="0 0 36 36">
  <circle id="Elipse_1203" data-name="Elipse 1203" cx="18" cy="18" r="18" fill="#1c1c1c"/>
  <g id="NPS_9" data-name="NPS 9">
    <g id="Grupo_20744" data-name="Grupo 20744">
      <path id="Trazado_23336" data-name="Trazado 23336" d="M18,0A18,18,0,1,0,36,18,18.021,18.021,0,0,0,18,0ZM7.875,13.5a3.375,3.375,0,1,1,3.375,3.375A3.379,3.379,0,0,1,7.875,13.5ZM25.954,25.954a11.247,11.247,0,0,1-15.91,0,1.125,1.125,0,0,1,1.591-1.591,9.213,9.213,0,0,0,12.728,0,1.125,1.125,0,0,1,1.591,1.591Zm-1.2-9.079A3.375,3.375,0,1,1,28.125,13.5,3.379,3.379,0,0,1,24.75,16.875Z" fill="#3bce3b"/>
    </g>
  </g>
</svg>
