<svg id="NPS_0" data-name="NPS 0" xmlns="http://www.w3.org/2000/svg" width="36" height="36" viewBox="0 0 36 36">
  <circle id="Elipse_1203" data-name="Elipse 1203" cx="18" cy="18" r="18" fill="#1c1c1c"/>
  <g id="NPS_7" data-name="NPS 7">
    <path id="Trazado_23335" data-name="Trazado 23335" d="M18,0A18,18,0,1,0,36,18,18.021,18.021,0,0,0,18,0ZM9,13.5a2.25,2.25,0,1,1,2.25,2.25A2.254,2.254,0,0,1,9,13.5ZM23.625,27H12.375a1.125,1.125,0,0,1,0-2.25h11.25a1.125,1.125,0,0,1,0,2.25ZM24.75,15.75A2.25,2.25,0,1,1,27,13.5,2.254,2.254,0,0,1,24.75,15.75Z" fill="#d9f503"/>
  </g>
</svg>
