<svg xmlns="http://www.w3.org/2000/svg" width="33" height="25" viewBox="0 0 33 33">
  <defs>
    <style>
      .cls-1 {
        fill: #e55d0c;
        stroke: #e55d0c;
      }

      .cls-2 {
        fill: none;
      }

      .cls-3, .cls-4 {
        stroke: none;
      }

      .cls-4 {
        fill: #e55d0c;
      }
    </style>
  </defs>
  <g id="Grupo_20684" data-name="Grupo 20684" transform="translate(0.5 0.5)">
    <path id="Trazado_23201" data-name="Trazado 23201" class="cls-1" d="M16,0A16,16,0,1,0,32,16,16.018,16.018,0,0,0,16,0Zm0,30.609A14.609,14.609,0,1,1,30.609,16,14.625,14.625,0,0,1,16,30.609Z" transform="translate(0)"/>
    <path id="Trazado_23202" data-name="Trazado 23202" class="cls-1" d="M211.478,132.174A3.482,3.482,0,0,1,208,128.7a.7.7,0,0,1,1.391,0,2.087,2.087,0,0,0,4.174,0,.7.7,0,0,1,1.391,0A3.482,3.482,0,0,1,211.478,132.174Z" transform="translate(-189.913 -116.869)"/>
    <path id="Trazado_23203" data-name="Trazado 23203" class="cls-1" d="M85.565,128.7a.7.7,0,0,1,1.391,0,3.478,3.478,0,0,1-6.957,0,.7.7,0,0,1,1.391,0,2.087,2.087,0,0,0,4.174,0Z" transform="translate(-73.044 -116.869)"/>
    <g id="Trazado_23208" data-name="Trazado 23208" class="cls-2" transform="translate(12 18)">
      <path class="cls-3" d="M4,0A4,4,0,1,1,0,4,4,4,0,0,1,4,0Z"/>
      <path class="cls-4" d="M 4 2 C 2.897200107574463 2 2 2.897200107574463 2 4 C 2 5.102799892425537 2.897200107574463 6 4 6 C 5.102799892425537 6 6 5.102799892425537 6 4 C 6 2.897200107574463 5.102799892425537 2 4 2 M 4 0 C 6.209139823913574 0 8 1.790860176086426 8 4 C 8 6.209139823913574 6.209139823913574 8 4 8 C 1.790860176086426 8 0 6.209139823913574 0 4 C 0 1.790860176086426 1.790860176086426 0 4 0 Z"/>
    </g>
  </g>
</svg>
