<svg id="result" xmlns="http://www.w3.org/2000/svg" width="52" height="52" viewBox="0 0 52 52">
  <g id="Grupo_20671" data-name="Grupo 20671" transform="translate(11.917 17.333)">
    <g id="Grupo_20670" data-name="Grupo 20670">
      <path id="Trazado_23295" data-name="Trazado 23295" d="M9.833,16.667a4.333,4.333,0,1,1,4.333-4.333A4.338,4.338,0,0,1,9.833,16.667Zm0-6.5A2.167,2.167,0,1,0,12,12.333,2.167,2.167,0,0,0,9.833,10.167Z" transform="translate(-5.5 -8)" fill="#f49c00"/>
    </g>
  </g>
  <g id="Grupo_20673" data-name="Grupo 20673" transform="translate(8.667 28.167)">
    <g id="Grupo_20672" data-name="Grupo 20672">
      <path id="Trazado_23296" data-name="Trazado 23296" d="M18.083,19.5A1.084,1.084,0,0,1,17,18.417V17.333a2.167,2.167,0,0,0-2.167-2.167h-6.5a2.167,2.167,0,0,0-2.167,2.167v1.083a1.083,1.083,0,0,1-2.167,0V17.333A4.338,4.338,0,0,1,8.333,13h6.5a4.338,4.338,0,0,1,4.333,4.333v1.083A1.084,1.084,0,0,1,18.083,19.5Z" transform="translate(-4 -13)" fill="#f49c00"/>
    </g>
  </g>
  <g id="Grupo_20675" data-name="Grupo 20675" transform="translate(24.917)">
    <g id="Grupo_20674" data-name="Grupo 20674">
      <path id="Trazado_23297" data-name="Trazado 23297" d="M29.917,44.98a1.079,1.079,0,0,1-.778-.329l-17.333-17.9A1.086,1.086,0,0,1,11.5,26V1.083A1.084,1.084,0,0,1,12.583,0a26.029,26.029,0,0,1,26,26,25.77,25.77,0,0,1-7.913,18.674A1.082,1.082,0,0,1,29.917,44.98ZM13.667,25.562,29.925,42.347A23.611,23.611,0,0,0,36.417,26,23.865,23.865,0,0,0,13.667,2.19Z" transform="translate(-11.5)" fill="#f49c00"/>
    </g>
  </g>
  <g id="Grupo_20677" data-name="Grupo 20677">
    <g id="Grupo_20676" data-name="Grupo 20676">
      <path id="Trazado_23298" data-name="Trazado 23298" d="M26,52A26,26,0,0,1,26,0a1.084,1.084,0,0,1,1.083,1.083V25.562l17.028,17.58a1.083,1.083,0,0,1-.024,1.532A25.909,25.909,0,0,1,26,52ZM24.917,2.19A23.834,23.834,0,1,0,41.784,43.853L25.22,26.752a1.084,1.084,0,0,1-.3-.752Z" fill="#f49c00"/>
    </g>
  </g>
</svg>
