<svg xmlns="http://www.w3.org/2000/svg" width="25" height="25" viewBox="0 0 33 33">
  <g id="Grupo_20555" data-name="Grupo 20555" transform="translate(0.5 0.5)">
    <path id="Trazado_23200" data-name="Trazado 23200" d="M117.681,224.177a.7.7,0,0,0-.982.054,7.739,7.739,0,0,1-11.485,0,.7.7,0,0,0-1.037.928,9.13,9.13,0,0,0,13.558,0A.7.7,0,0,0,117.681,224.177Z" transform="translate(-94.956 -204.521)" fill="#09de9d" stroke="#29de9d" stroke-width="1"/>
    <path id="Trazado_23201" data-name="Trazado 23201" d="M16,0A16,16,0,1,0,32,16,16.018,16.018,0,0,0,16,0Zm0,30.609A14.609,14.609,0,1,1,30.609,16,14.625,14.625,0,0,1,16,30.609Z" fill="#09de9d" stroke="#29de9d" stroke-width="1"/>
    <path id="Trazado_23202" data-name="Trazado 23202" d="M211.478,128A3.482,3.482,0,0,0,208,131.478a.7.7,0,0,0,1.391,0,2.087,2.087,0,1,1,4.174,0,.7.7,0,0,0,1.391,0A3.482,3.482,0,0,0,211.478,128Z" transform="translate(-189.913 -116.87)" fill="#09de9d" stroke="#29de9d" stroke-width="1"/>
    <path id="Trazado_23203" data-name="Trazado 23203" d="M85.565,131.478a.7.7,0,0,0,1.391,0,3.478,3.478,0,1,0-6.957,0,.7.7,0,0,0,1.391,0,2.087,2.087,0,0,1,4.174,0Z" transform="translate(-73.043 -116.87)" fill="#09de9d" stroke="#29de9d" stroke-width="1"/>
  </g>
</svg>
